<svg width="24" height="24" viewBox="0 0 24 24" fill="none" xmlns="http://www.w3.org/2000/svg">
<path d="M0 12C0 5.37258 5.37258 0 12 0C18.6274 0 24 5.37258 24 12C24 18.6274 18.6274 24 12 24C5.37258 24 0 18.6274 0 12Z" fill="#012B5B"/>
<path d="M10.1234 15.3055C9.97248 15.7885 9.67202 16.2111 9.26537 16.5124C8.85871 16.8136 8.36689 16.9779 7.86083 16.9815C7.35625 16.9753 6.86649 16.81 6.46145 16.509C6.0564 16.208 5.75675 15.7868 5.60525 15.3055H4.97676C4.46786 15.3074 3.97854 15.1095 3.61414 14.7542C3.24975 14.399 3.03942 13.9148 3.02844 13.4061V11.9396C3.02844 11.1365 3.48235 10.0541 4.07593 9.43958L5.68207 7.83344C6.24073 7.2678 7.28821 6.81389 8.1262 6.81389H12.0019C12.8987 6.84925 13.7614 7.16697 14.467 7.72171L15.8846 8.9298C16.2477 9.23707 17.0019 9.57226 17.4558 9.62813L19.425 9.87952C19.9186 9.9532 20.3692 10.2018 20.6948 10.5799C21.0204 10.958 21.1992 11.4406 21.1988 11.9396V13.4061C21.1988 14.4535 20.3887 15.3055 19.3273 15.3055H18.5102C18.3556 15.7816 18.0568 16.198 17.6552 16.497C17.2537 16.7959 16.7691 16.9628 16.2686 16.9745C15.7673 16.9623 15.2821 16.7944 14.8804 16.4941C14.4788 16.1938 14.1805 15.776 14.027 15.2985H10.1304L10.1234 15.3055ZM16.2617 12.1281C16.7736 12.1323 17.2705 12.3018 17.6782 12.6113C18.0859 12.9209 18.3827 13.354 18.5242 13.846H19.3273C19.5857 13.846 19.7742 13.6574 19.7742 13.4061V11.9396C19.7703 11.7927 19.7162 11.6516 19.6209 11.5398C19.5256 11.4279 19.3949 11.3521 19.2505 11.325L17.2812 11.0737C16.4389 10.9308 15.6463 10.5777 14.9767 10.0471L13.5591 8.83902C13.1064 8.50153 12.5654 8.30262 12.0019 8.2664H8.11921C7.58944 8.30569 7.08689 8.51652 6.68765 8.86696L5.08151 10.4731C4.7533 10.8223 4.45302 11.5206 4.45302 11.9396V13.4061C4.45302 13.6155 4.68347 13.846 4.98374 13.846H5.5843C5.72599 13.3503 6.02429 12.9137 6.43462 12.6016C6.84495 12.2894 7.34528 12.1184 7.86083 12.1142C8.37638 12.1184 8.87671 12.2894 9.28704 12.6016C9.69737 12.9137 9.99567 13.3503 10.1374 13.846H13.9991C14.1406 13.354 14.4374 12.9209 14.8451 12.6113C15.2528 12.3018 15.7497 12.1323 16.2617 12.1281ZM7.86083 15.515C8.38457 15.515 8.81055 15.075 8.81055 14.5373C8.81055 14.0066 8.39156 13.5667 7.86083 13.5667C7.33709 13.5667 6.91111 14.0066 6.91111 14.5443C6.91111 15.075 7.33709 15.515 7.86083 15.515ZM16.2617 15.501C16.7784 15.501 17.1974 15.0681 17.1974 14.5373C17.1974 14.0136 16.7784 13.5806 16.2617 13.5806C15.7449 13.5806 15.3189 14.0136 15.3189 14.5373C15.3189 15.0681 15.7379 15.501 16.2617 15.501Z" fill="white"/>
</svg>