<svg width="16" height="16" viewBox="0 0 16 16" fill="none" xmlns="http://www.w3.org/2000/svg">
<g id="group">
<path id="edit" fill-rule="evenodd" clip-rule="evenodd" d="M6 6C6.82843 6 7.5 5.32843 7.5 4.5C7.5 3.67157 6.82843 3 6 3C5.17157 3 4.5 3.67157 4.5 4.5C4.5 5.32843 5.17157 6 6 6ZM8.66146 5.88577C8.16093 6.84509 7.15695 7.5 6 7.5C4.34315 7.5 3 6.15685 3 4.5C3 2.84315 4.34315 1.5 6 1.5C7.36853 1.5 8.52304 2.41636 8.88341 3.66897C9.326 2.96663 10.1085 2.5 11 2.5C12.3807 2.5 13.5 3.61929 13.5 5C13.5 6.38071 12.3807 7.5 11 7.5C9.93118 7.5 9.01902 6.82927 8.66146 5.88577ZM2.56803 10.4192C1.677 10.9864 1.5 11.5102 1.5 11.6923C1.5 12.1384 1.86162 12.5 2.30769 12.5H9.69231C10.1384 12.5 10.5 12.1384 10.5 11.6923C10.5 11.5102 10.323 10.9864 9.43197 10.4192C8.60078 9.89006 7.38369 9.5 6 9.5C4.61631 9.5 3.39922 9.89006 2.56803 10.4192ZM0 11.6923C0 9.84615 2.7 8 6 8C6.93754 8 7.82665 8.14901 8.61918 8.4047C9.3281 8.15061 10.1396 8 11 8C13.75 8 16 9.53846 16 11.0769C16 12.139 15.139 13 14.0769 13H11.594C11.1778 13.604 10.4813 14 9.69231 14H2.30769C1.03319 14 0 12.9668 0 11.6923ZM11.9903 11.5H14.0769C14.3106 11.5 14.5 11.3106 14.5 11.0769C14.5 11.0486 14.4355 10.6787 13.7257 10.2269C13.0758 9.81314 12.1087 9.5 11 9.5C10.9093 9.5 10.8195 9.5021 10.7308 9.50617C11.4595 10.0913 11.9192 10.7909 11.9903 11.5ZM12 5C12 5.55228 11.5523 6 11 6C10.4477 6 10 5.55228 10 5C10 4.44772 10.4477 4 11 4C11.5523 4 12 4.44772 12 5Z" fill="#262626"/>
</g>
</svg>
