<svg width="20" height="24" viewBox="0 0 20 24" fill="none" xmlns="http://www.w3.org/2000/svg">
<g id="Group 46">
<path id="Vector" fill-rule="evenodd" clip-rule="evenodd" d="M10 0C4.69798 0 0.400024 4.29787 0.400024 9.59983C0.400024 12.2499 1.47429 14.6497 3.21045 16.3867C4.94748 18.1245 9.04011 20.6395 9.28009 23.2801C9.31648 23.676 9.60324 24 10 24C10.3977 24 10.6844 23.676 10.7208 23.2801C10.9608 20.6395 15.0526 18.1245 16.7896 16.3867C18.5266 14.6497 19.6 12.2499 19.6 9.59983C19.6 4.29787 15.3021 0 10 0Z" fill="#FF4433"/>
<path id="Vector_2" fill-rule="evenodd" clip-rule="evenodd" d="M10.0269 12.9968C11.8879 12.9968 13.396 11.4877 13.396 9.62769C13.396 7.76678 11.8879 6.25772 10.0269 6.25772C8.16603 6.25772 6.65784 7.76678 6.65784 9.62769C6.65784 11.4877 8.16603 12.9968 10.0269 12.9968Z" fill="white"/>
</g>
</svg>
